<svg width="50" height="48" viewBox="0 0 50 48" fill="none" xmlns="http://www.w3.org/2000/svg">
<ellipse cx="18.5" cy="15.5" rx="7.5" ry="12.5" fill="#4270E6"/>
<rect width="5.15795" height="8.99931" transform="matrix(-0.735681 -0.677328 -0.708727 0.705483 36.1727 3.49365)" fill="#00DFED"/>
<rect width="5.15795" height="8.99931" transform="matrix(-0.735681 -0.677328 -0.708727 0.705483 36.1727 3.49365)" fill="#00DFED"/>
<rect width="5.32735" height="28.9" transform="matrix(-1 8.36919e-08 9.132e-08 1 37.6727 0)" fill="#00DFED"/>
<rect width="5.32735" height="28.9" transform="matrix(-1 8.36919e-08 9.132e-08 1 37.6727 0)" fill="#00DFED"/>
<rect width="5.09999" height="16.8699" transform="matrix(1.24565e-08 -1 -1 -1.1416e-08 43 34)" fill="#00DFED"/>
<rect width="5.09999" height="16.8699" transform="matrix(1.24565e-08 -1 -1 -1.1416e-08 43 34)" fill="#00DFED"/>
<path d="M25.6252 21.3999C25.0303 24.8309 23.755 27.8878 21.9783 30.1412C20.2017 32.3946 18.0129 33.7313 15.7194 33.9636C13.426 34.1959 11.143 33.3122 9.19125 31.4364C7.23947 29.5607 5.71688 26.7873 4.83733 23.5056C3.95777 20.224 3.76545 16.599 4.28735 13.1397C4.80926 9.68046 6.01918 6.56075 7.7472 4.21872C9.47521 1.8767 11.6345 0.430021 13.9218 0.0818598C16.2091 -0.266301 18.5095 0.501548 20.5 2.27757L16.9487 11.7836C16.2435 11.1543 15.4284 10.8823 14.618 11.0056C13.8076 11.129 13.0425 11.6416 12.4302 12.4714C11.818 13.3012 11.3893 14.4066 11.2043 15.6322C11.0194 16.8579 11.0876 18.1423 11.3992 19.305C11.7108 20.4678 12.2503 21.4505 12.9419 22.1151C13.6334 22.7797 14.4423 23.0928 15.2549 23.0105C16.0675 22.9282 16.843 22.4545 17.4725 21.6561C18.102 20.8577 18.5539 19.7746 18.7647 18.559L25.6252 21.3999Z" fill="#00DFED"/>
<path d="M17 20C17 21.1046 16.1046 22 15 22C13.8954 22 13 21.1046 13 20C13 18.8954 13.8954 18 15 18C16.1046 18 17 18.8954 17 20Z" fill="#00DFED"/>
<path d="M1.05682 45V36.2727H4.10795C4.71591 36.2727 5.21733 36.3778 5.61222 36.5881C6.0071 36.7955 6.30114 37.0753 6.49432 37.4276C6.6875 37.777 6.78409 38.1648 6.78409 38.5909C6.78409 38.9659 6.71733 39.2756 6.58381 39.5199C6.45313 39.7642 6.27983 39.9574 6.06392 40.0994C5.85085 40.2415 5.61932 40.3466 5.36932 40.4148V40.5C5.63636 40.517 5.90483 40.6108 6.17472 40.7812C6.4446 40.9517 6.67045 41.196 6.85227 41.5142C7.03409 41.8324 7.125 42.2216 7.125 42.6818C7.125 43.1193 7.02557 43.5128 6.8267 43.8622C6.62784 44.2116 6.31392 44.4886 5.88494 44.6932C5.45597 44.8977 4.89773 45 4.21023 45H1.05682ZM2.11364 44.0625H4.21023C4.90057 44.0625 5.39063 43.929 5.6804 43.6619C5.97301 43.392 6.11932 43.0653 6.11932 42.6818C6.11932 42.3864 6.04403 42.1136 5.89347 41.8636C5.7429 41.6108 5.52841 41.4091 5.25 41.2585C4.97159 41.1051 4.64205 41.0284 4.26136 41.0284H2.11364V44.0625ZM2.11364 40.108H4.07386C4.39205 40.108 4.67898 40.0455 4.93466 39.9205C5.19318 39.7955 5.39773 39.6193 5.5483 39.392C5.7017 39.1648 5.77841 38.8977 5.77841 38.5909C5.77841 38.2074 5.64489 37.8821 5.37784 37.6151C5.1108 37.3452 4.6875 37.2102 4.10795 37.2102H2.11364V40.108ZM8.72514 45V38.4545H9.73082V45H8.72514ZM9.23651 37.3636C9.04048 37.3636 8.87145 37.2969 8.7294 37.1634C8.5902 37.0298 8.5206 36.8693 8.5206 36.6818C8.5206 36.4943 8.5902 36.3338 8.7294 36.2003C8.87145 36.0668 9.04048 36 9.23651 36C9.43253 36 9.60014 36.0668 9.73935 36.2003C9.88139 36.3338 9.95241 36.4943 9.95241 36.6818C9.95241 36.8693 9.88139 37.0298 9.73935 37.1634C9.60014 37.2969 9.43253 37.3636 9.23651 37.3636ZM14.4194 38.4545V39.3068H11.0273V38.4545H14.4194ZM12.016 36.8864H13.0217V43.125C13.0217 43.4091 13.0629 43.6222 13.1452 43.7642C13.2305 43.9034 13.3384 43.9972 13.4691 44.0455C13.6026 44.0909 13.7433 44.1136 13.891 44.1136C14.0018 44.1136 14.0927 44.108 14.1637 44.0966C14.2347 44.0824 14.2915 44.071 14.3342 44.0625L14.5387 44.9659C14.4705 44.9915 14.3754 45.017 14.2532 45.0426C14.131 45.071 13.9762 45.0852 13.7887 45.0852C13.5046 45.0852 13.2262 45.0241 12.9535 44.902C12.6836 44.7798 12.4592 44.5938 12.2802 44.3438C12.104 44.0938 12.016 43.7784 12.016 43.3977V36.8864Z" fill="#00DFED"/>
<path d="M16.4265 36.2727L19.0174 43.6193H19.1197L21.7106 36.2727H22.8185L19.614 45H18.5231L15.3185 36.2727H16.4265ZM24.0415 45V38.4545H25.0472V45H24.0415ZM24.5529 37.3636C24.3569 37.3636 24.1879 37.2969 24.0458 37.1634C23.9066 37.0298 23.837 36.8693 23.837 36.6818C23.837 36.4943 23.9066 36.3338 24.0458 36.2003C24.1879 36.0668 24.3569 36 24.5529 36C24.7489 36 24.9165 36.0668 25.0558 36.2003C25.1978 36.3338 25.2688 36.4943 25.2688 36.6818C25.2688 36.8693 25.1978 37.0298 25.0558 37.1634C24.9165 37.2969 24.7489 37.3636 24.5529 37.3636ZM31.5256 39.9205L30.6222 40.1761C30.5653 40.0256 30.4815 39.8793 30.3707 39.7372C30.2628 39.5923 30.1151 39.473 29.9276 39.3793C29.7401 39.2855 29.5 39.2386 29.2074 39.2386C28.8068 39.2386 28.473 39.331 28.206 39.5156C27.9418 39.6974 27.8097 39.929 27.8097 40.2102C27.8097 40.4602 27.9006 40.6577 28.0824 40.8026C28.2642 40.9474 28.5483 41.0682 28.9347 41.1648L29.9062 41.4034C30.4915 41.5455 30.9276 41.7628 31.2145 42.0554C31.5014 42.3452 31.6449 42.7187 31.6449 43.1761C31.6449 43.5511 31.5369 43.8864 31.321 44.1818C31.108 44.4773 30.8097 44.7102 30.4261 44.8807C30.0426 45.0511 29.5966 45.1364 29.0881 45.1364C28.4205 45.1364 27.8679 44.9915 27.4304 44.7017C26.9929 44.4119 26.7159 43.9886 26.5994 43.4318L27.554 43.1932C27.6449 43.5455 27.8168 43.8097 28.0696 43.9858C28.3253 44.1619 28.6591 44.25 29.071 44.25C29.5398 44.25 29.9119 44.1506 30.1875 43.9517C30.4659 43.75 30.6051 43.5085 30.6051 43.2273C30.6051 43 30.5256 42.8097 30.3665 42.6562C30.2074 42.5 29.9631 42.3835 29.6335 42.3068L28.5426 42.0511C27.9432 41.9091 27.5028 41.6889 27.2216 41.3906C26.9432 41.0895 26.804 40.7131 26.804 40.2614C26.804 39.892 26.9077 39.5653 27.1151 39.2812C27.3253 38.9972 27.6108 38.7741 27.9716 38.6122C28.3352 38.4503 28.7472 38.3693 29.2074 38.3693C29.8551 38.3693 30.3636 38.5114 30.733 38.7955C31.1051 39.0795 31.3693 39.4545 31.5256 39.9205ZM33.1587 45V38.4545H34.1644V45H33.1587ZM33.6701 37.3636C33.4741 37.3636 33.305 37.2969 33.163 37.1634C33.0238 37.0298 32.9542 36.8693 32.9542 36.6818C32.9542 36.4943 33.0238 36.3338 33.163 36.2003C33.305 36.0668 33.4741 36 33.6701 36C33.8661 36 34.0337 36.0668 34.1729 36.2003C34.315 36.3338 34.386 36.4943 34.386 36.6818C34.386 36.8693 34.315 37.0298 34.1729 37.1634C34.0337 37.2969 33.8661 37.3636 33.6701 37.3636ZM38.6655 45.1364C38.0746 45.1364 37.5561 44.9957 37.1101 44.7145C36.6669 44.4332 36.3203 44.0398 36.0703 43.5341C35.8232 43.0284 35.6996 42.4375 35.6996 41.7614C35.6996 41.0795 35.8232 40.4844 36.0703 39.9759C36.3203 39.4673 36.6669 39.0724 37.1101 38.7912C37.5561 38.5099 38.0746 38.3693 38.6655 38.3693C39.2564 38.3693 39.7734 38.5099 40.2166 38.7912C40.6626 39.0724 41.0092 39.4673 41.2564 39.9759C41.5064 40.4844 41.6314 41.0795 41.6314 41.7614C41.6314 42.4375 41.5064 43.0284 41.2564 43.5341C41.0092 44.0398 40.6626 44.4332 40.2166 44.7145C39.7734 44.9957 39.2564 45.1364 38.6655 45.1364ZM38.6655 44.233C39.1143 44.233 39.4837 44.1179 39.7734 43.8878C40.0632 43.6577 40.2777 43.3551 40.4169 42.9801C40.5561 42.6051 40.6257 42.1989 40.6257 41.7614C40.6257 41.3239 40.5561 40.9162 40.4169 40.5384C40.2777 40.1605 40.0632 39.8551 39.7734 39.6222C39.4837 39.3892 39.1143 39.2727 38.6655 39.2727C38.2166 39.2727 37.8473 39.3892 37.5575 39.6222C37.2678 39.8551 37.0533 40.1605 36.9141 40.5384C36.7749 40.9162 36.7053 41.3239 36.7053 41.7614C36.7053 42.1989 36.7749 42.6051 36.9141 42.9801C37.0533 43.3551 37.2678 43.6577 37.5575 43.8878C37.8473 44.1179 38.2166 44.233 38.6655 44.233ZM44.1722 41.0625V45H43.1665V38.4545H44.1381V39.4773H44.2234C44.3768 39.1449 44.6097 38.8778 44.9222 38.6761C45.2347 38.4716 45.6381 38.3693 46.1325 38.3693C46.5756 38.3693 46.9634 38.4602 47.2958 38.642C47.6282 38.821 47.8867 39.0938 48.0714 39.4602C48.256 39.8239 48.3484 40.2841 48.3484 40.8409V45H47.3427V40.9091C47.3427 40.3949 47.2092 39.9943 46.9421 39.7074C46.6751 39.4176 46.3086 39.2727 45.8427 39.2727C45.5217 39.2727 45.2347 39.3423 44.9819 39.4815C44.7319 39.6207 44.5344 39.8239 44.3896 40.0909C44.2447 40.358 44.1722 40.6818 44.1722 41.0625Z" fill="#4270E6"/>
</svg>
